<svg version="1.1"
     baseProfile="full"
     xmlns="http://www.w3.org/2000/svg"
     viewBox="0 0 400 100" >
  <g>
      <path
         id="21"
         d="M 43.007061,101.01617 81.925741,60.128527 128.79298,86.439734 82.705149,55.269421"
         style="fill:#8dd126"
      />
      <path
         id="22"
         d="M 47.371463,90.48543 86.290143,49.597792 133.15738,75.909022 87.06955,44.738686"
         style="fill:#8dd126"
      />
      <path
         id="23"
         d="M 51.735865,79.954718 90.654544,39.067057 137.52178,65.378287 91.433952,34.207974"
         style="fill:#8dd126"
      />
      <path
         id="11"
         d="M 93.281978,28.55751 54.363276,69.445148 7.496063,43.133941 53.583891,74.304254"
         style="fill:#bbd2e6"
      />
      <path
         id="12"
         d="M 97.64638,18.026798 58.727677,58.914436 11.860465,32.603207 57.948292,63.773542"
         style="fill:#bbd2e6"
      />
      <path
         id="13"
         d="M 102.01078,7.496063 63.092079,48.383702 16.224866,22.072495 62.312694,53.242807"
         style="fill:#bbd2e6"
      />
      <path
         id="w"
         d="m 167.78665,72.782739 -7.10921,-27.436372 h 5.78438 l 4.18602,17.981169 3.91411,-17.981169 h 5.68769 l 3.72733,17.981169 4.31825,-17.981169 h 5.86373 l -7.20342,27.436372 h -5.77033 l -3.81991,-17.64498 -3.8422,17.64498"
         style="fill:#ffffff"
      />
      <path
         id="i"
         d="m 197.33255,41.64591 v -6.713724 h 5.97695 v 6.713724 z m 0,31.136829 V 45.346367 h 5.97695 v 27.436372"
         style="fill:#ffffff"
      />
      <path
         id="l"
         d="M 209.39223,72.782739 V 34.932186 h 5.97696 v 37.850553"
         style="fill:#ffffff"
      />
      <path
         id="ll"
         d="M 221.45193,72.782739 V 34.932186 h 5.97694 v 37.850553"
         style="fill:#ffffff"
      />
      <path
         id="d"
         d="m 254.14002,72.782739 h -5.55379 v -4.026755 c -0.91076,1.548487 -1.98487,2.712444 -3.22236,3.491916 -1.23748,0.779472 -2.5094,1.169197 -3.81576,1.169197 -2.50968,0 -4.69692,-1.254265 -6.56167,-3.76284 -1.86478,-2.508553 -2.79716,-6.090209 -2.79716,-10.744993 0,-4.689468 0.91034,-8.228047 2.73104,-10.615734 1.82068,-2.387666 4.06219,-3.581521 6.72449,-3.581521 1.25401,0 2.42633,0.318426 3.51699,0.955279 1.09066,0.636831 2.09107,1.591815 3.00128,2.864954 V 34.932186 h 5.97694 z M 238.27203,58.47975 c 0,2.488454 0.21032,4.341847 0.63099,5.560202 0.42068,1.218355 1.02177,2.134253 1.80334,2.747696 0.78156,0.613442 1.66159,0.920163 2.64012,0.920163 1.30526,0 2.43875,-0.708582 3.40046,-2.125724 0.96174,-1.417119 1.44258,-3.551372 1.44258,-6.402715 0,-3.162464 -0.4679,-5.439201 -1.40372,-6.830187 -0.93584,-1.390986 -2.12525,-2.086457 -3.56824,-2.086457 -1.37358,0 -2.54123,0.68254 -3.50295,2.047643 -0.96173,1.365103 -1.44258,3.421548 -1.44258,6.169379"
         style="fill:#ffffff"
      />
      <path
         id="e"
         d="m 273.07587,64.060187 5.92406,1.215882 c -0.79396,2.756633 -2.02786,4.80262 -3.70171,6.137983 -1.67387,1.335363 -3.71026,2.003045 -6.1092,2.003045 -3.33062,0 -5.90174,-1.112077 -7.71334,-3.336207 -2.13998,-2.585931 -3.20996,-6.206265 -3.20996,-10.861048 0,-4.585935 1.07633,-8.258059 3.22898,-11.016326 1.82481,-2.327664 4.1838,-3.491507 7.07695,-3.491507 3.21991,0 5.74225,1.18916 7.56708,3.567479 2.10085,2.722492 3.15127,6.73795 3.15127,12.046374 l -0.0256,0.826815 h -14.91595 c 0.0347,2.169619 0.52397,3.848611 1.4678,5.036931 0.9438,1.188343 2.0824,1.782503 3.41576,1.782503 1.92179,0 3.20306,-1.303967 3.84386,-3.911924 z m 0.31735,-7.348081 c -0.0518,-2.140991 -0.50964,-3.751135 -1.37358,-4.830432 -0.86391,-1.079297 -1.89203,-1.618946 -3.08433,-1.618946 -1.26118,0 -2.32374,0.561109 -3.18765,1.683371 -0.88157,1.139888 -1.31353,2.72855 -1.29589,4.766007"
         style="fill:#ffffff"
      />
      <path
         id="r"
         d="M 289.84306,72.782739 H 283.8661 V 45.346367 h 5.55382 v 3.897905 c 0.94766,-1.823812 1.79616,-3.035135 2.54549,-3.633991 0.74931,-0.598855 1.6149,-0.898272 2.59673,-0.898272 1.36146,0 2.66229,0.456237 3.90255,1.368687 l -1.85953,6.321367 c -0.9846,-0.791858 -1.91739,-1.187798 -2.79839,-1.187798 -0.82867,0 -1.5583,0.30604 -2.18888,0.918099 -0.6306,0.612058 -1.08405,1.71987 -1.36035,3.323413 -0.27632,1.60352 -0.41448,4.551794 -0.41448,8.844778"
         style="fill:#ffffff"
      />
      <path
         id="dot"
         d="m 300.41867,72.782739 v -5.286396 h 5.28934 v 5.286396"
         style="fill:#8dd126"
      />
      <path
         id="c"
         d="m 326.72817,62.791449 3.80833,0.581502 c -0.43086,3.262164 -1.51242,5.751707 -3.24469,7.468696 -1.73224,1.716967 -3.81355,2.57545 -6.24388,2.57545 -2.94715,0 -5.3731,-1.20885 -7.27781,-3.62655 -1.90472,-2.4177 -2.85706,-5.992755 -2.85706,-10.725166 0,-4.767119 0.96185,-8.34231 2.88557,-10.725574 1.92373,-2.383288 4.39498,-3.574942 7.41376,-3.574942 2.32896,0 4.29139,0.722488 5.88729,2.167418 1.59588,1.444953 2.61808,3.612372 3.06656,6.502279 l -3.70252,0.687213 c -0.362,-1.859042 -0.99122,-3.248916 -1.88763,-4.169624 -0.89644,-0.92073 -1.97387,-1.381073 -3.2323,-1.381073 -1.87937,0 -3.43531,0.831375 -4.66785,2.494102 -1.23251,1.662728 -1.84877,4.303578 -1.84877,7.922551 0,3.739021 0.58691,6.444296 1.76078,8.115848 1.17384,1.671551 2.67757,2.507327 4.5112,2.507327 1.43916,0 2.66852,-0.553282 3.68809,-1.659846 1.01957,-1.106564 1.66656,-2.826435 1.94093,-5.159611"
         style="fill:#8dd126"
      />
      <path
         id="o"
         d="m 332.28198,59.090992 c 0,-4.732433 0.99327,-8.303224 2.97979,-10.712372 1.98653,-2.40917 4.50186,-3.613755 7.546,-3.613755 2.99288,0 5.49539,1.204585 7.50754,3.613755 2.01215,2.409148 3.01824,5.88523 3.01824,10.428222 0,4.921852 -0.989,8.587352 -2.96699,10.996522 -1.97799,2.409148 -4.49759,3.613733 -7.55879,3.613733 -3.00998,0 -5.51676,-1.20885 -7.52037,-3.62655 -2.00362,-2.4177 -3.00542,-5.984203 -3.00542,-10.699555 z m 3.91411,-0.01322 c 0,3.554004 0.64313,6.19803 1.92937,7.932055 1.28625,1.734049 2.88144,2.601084 4.7856,2.601084 1.7835,0 3.3141,-0.875565 4.59181,-2.626672 1.27771,-1.75113 1.91657,-4.386604 1.91657,-7.906467 0,-3.536378 -0.64313,-6.17158 -1.92937,-7.905628 -1.28624,-1.734048 -2.88147,-2.601061 -4.78562,-2.601061 -1.80057,0 -3.33544,0.871278 -4.60461,2.613878 -1.26918,1.742578 -1.90375,4.373515 -1.90375,7.892811"
         style="fill:#8dd126"
      />
      <path
         id="m"
         d="M 357.82948,72.782739 V 45.346367 h 3.43808 v 3.874766 c 0.75371,-1.425126 1.72178,-2.524114 2.90416,-3.296962 1.1824,-0.772871 2.47608,-1.159306 3.88106,-1.159306 1.57633,0 2.90845,0.407918 3.99634,1.223731 1.08788,0.815813 1.86325,2.005109 2.32608,3.567887 0.89698,-1.597463 1.92771,-2.795447 3.09218,-3.593907 1.1645,-0.798459 2.45389,-1.197711 3.86824,-1.197711 2.15651,0 3.8557,0.731017 5.0976,2.193029 1.24189,1.462013 1.86284,3.800974 1.86284,7.016861 v 18.807984 h -3.80831 v -17.26501 c 0,-1.960919 -0.14229,-3.349977 -0.42687,-4.167174 -0.28458,-0.817174 -0.74602,-1.44949 -1.38432,-1.896902 -0.6383,-0.447413 -1.35415,-0.67113 -2.14756,-0.67113 -1.63803,0 -2.97457,0.649511 -4.00955,1.948533 -1.03501,1.299022 -1.55251,3.341992 -1.55251,6.128909 V 72.782739 H 371.1586 V 54.975857 c 0,-2.270929 -0.34738,-3.870888 -1.04215,-4.799875 -0.69479,-0.928965 -1.65126,-1.393459 -2.86948,-1.393459 -1.73225,0 -3.10018,0.701142 -4.10377,2.103402 -1.00361,1.402283 -1.5054,3.961355 -1.5054,7.67726 v 14.219554"
         style="fill:#8dd126"
      />
  </g>
</svg>